<?xml version="1.0" encoding="utf-8"?>
<!-- License: PD. Made by Mary Akveo: https://maryakveo.com/ -->
<svg fill="#000000" width="800px" height="800px" viewBox="0 0 24 24" id="cylinder" data-name="Flat Line" xmlns="http://www.w3.org/2000/svg" class="icon flat-line"><path id="secondary" d="M18,19c0,1.1-2.69,2-6,2s-6-.9-6-2,2.69-2,6-2S18,17.9,18,19ZM12,3C8.69,3,6,3.9,6,5s2.69,2,6,2,6-.9,6-2S15.31,3,12,3Z" style="fill: rgb(44, 169, 188); stroke-width: 2;"></path><path id="primary" d="M18,5V19c0,1.1-2.69,2-6,2s-6-.9-6-2V5c0-1.1,2.69-2,6-2S18,3.9,18,5ZM12,17c-3.31,0-6,.9-6,2s2.69,2,6,2,6-.9,6-2S15.31,17,12,17ZM18,5c0,1.1-2.69,2-6,2S6,6.1,6,5s2.69-2,6-2S18,3.9,18,5Z" style="fill: none; stroke: rgb(0, 0, 0); stroke-linecap: round; stroke-linejoin: round; stroke-width: 2;"></path></svg>