<?xml version="1.0" encoding="iso-8859-1"?>
<!-- Generator: Adobe Illustrator 18.0.0, SVG Export Plug-In . SVG Version: 6.00 Build 0)  -->
<!DOCTYPE svg PUBLIC "-//W3C//DTD SVG 1.1//EN" "http://www.w3.org/Graphics/SVG/1.1/DTD/svg11.dtd">
<!-- License: CC0. Made by SVG Repo: https://www.svgrepo.com/svg/101077/plane -->
<svg version="1.1" id="Capa_1" xmlns="http://www.w3.org/2000/svg" xmlns:xlink="http://www.w3.org/1999/xlink" x="0px" y="0px"
     viewBox="0 0 217.205 217.205" style="enable-background:new 0 0 217.205 217.205;" xml:space="preserve">
<path d="M209.705,0h-67.401H74.901H7.5C3.357,0,0,3.358,0,7.5v67.401v67.402v67.401c0,4.142,3.357,7.5,7.5,7.5h67.401h67.402h67.401
	c4.143,0,7.5-3.358,7.5-7.5v-67.401V74.901V7.5C217.205,3.358,213.848,0,209.705,0z M202.205,67.401h-52.401V15h52.401V67.401z
	 M202.205,134.804h-52.401V82.401h52.401V134.804z M15,82.401h52.401v52.402H15V82.401z M82.401,82.401h52.402v52.402H82.401V82.401
	z M134.804,15v52.401H82.401V15H134.804z M67.401,15v52.401H15V15H67.401z M15,149.804h52.401v52.401H15V149.804z M82.401,202.205
	v-52.401h52.402v52.401H82.401z M149.804,202.205v-52.401h52.401v52.401H149.804z"/>
</svg>
