<?xml version="1.0" encoding="utf-8"?>

<!-- License: CC Attribution. Made by Madebyelvis: https://dribbble.com/Madebyelvis -->
<svg width="800px" height="800px" viewBox="0 0 1024 1024" class="icon"  version="1.1" xmlns="http://www.w3.org/2000/svg"><path d="M99.294351 519.616683h-7.480506v-7.480506c0-4.060729-3.419777-7.480506-7.480506-7.480506s-7.480506 3.419777-7.480507 7.480506v7.480506h-7.480506c-4.060729 0-7.480506 3.419777-7.480506 7.480506s3.419777 7.480506 7.480506 7.480506h7.480506v7.480506c0 4.060729 3.419777 7.479482 7.480507 7.479483s7.480506-3.419777 7.480506-7.479483v-7.480506h7.480506c4.060729 0 7.480506-3.419777 7.480506-7.480506 0-4.061753-3.419777-7.480506-7.480506-7.480506zM935.986817 645.494169c-12.182188 0-22.012511-9.831347-22.01251-22.012511s9.831347-22.012511 22.01251-22.012511c12.181164 0 22.012511 9.831347 22.012511 22.012511s-9.831347 22.012511-22.012511 22.012511z m0-29.065033c-3.846737 0-7.052522 3.205785-7.052522 7.052522s3.205785 7.052522 7.052522 7.052522 7.052522-3.205785 7.052523-7.052522-3.205785-7.052522-7.052523-7.052522z" fill="#F16723" /><path d="M222.82202 278.118995m-4.487689 0a4.487689 4.487689 0 1 0 8.975378 0 4.487689 4.487689 0 1 0-8.975378 0Z" fill="" /><path d="M644.26653 481.147264m-6.625562 0a6.625562 6.625562 0 1 0 13.251124 0 6.625562 6.625562 0 1 0-13.251124 0Z" fill="" /><path d="M183.711648 255.892492m-6.625562 0a6.625562 6.625562 0 1 0 13.251124 0 6.625562 6.625562 0 1 0-13.251124 0Z" fill="" /><path d="M649.823156 269.997536a25.35652 25.35652 0 0 1-25.432288-25.432287c0-14.105044 11.327243-25.432288 25.432288-25.432288s25.432288 11.327243 25.432287 25.432288a25.35652 25.35652 0 0 1-25.432287 25.432287z m0-35.903563c-5.770618 0-10.472299 4.701681-10.472299 10.4723s4.701681 10.472299 10.472299 10.472299 10.472299-4.701681 10.472299-10.472299-4.701681-10.472299-10.472299-10.4723z" fill="#FBD20A" /><path d="M297.193978 587.577071c-9.831347 0-17.951781-8.121458-17.951781-17.951781 0-9.831347 8.121458-17.951781 17.951781-17.951781s17.951781 8.121458 17.951782 17.951781c0 9.831347-8.120435 17.951781-17.951782 17.951781z m0-20.943574c-1.709888 0-2.991793 1.281904-2.991793 2.991793s1.281904 2.991793 2.991793 2.991793 2.991793-1.281904 2.991793-2.991793c0-1.709888-1.281904-2.991793-2.991793-2.991793z" fill="#4E9BD4" /><path d="M884.267298 372.580607h-770.012958c-7.052522 0-12.82314-5.770618-12.82314-12.82314s5.770618-12.82314 12.82314-12.82314h770.012958c7.052522 0 12.82314 5.770618 12.82314 12.82314s-5.770618 12.82314-12.82314 12.82314zM888.328027 761.541331c-7.052522 0-12.82314-5.770618-12.82314-12.823139 0-41.24722-6.625562-82.066457-19.875661-121.175805-2.350841-6.625562 1.281904-13.891052 8.121458-16.241893 6.625562-2.350841 13.891052 1.281904 16.241893 8.121459 14.105044 41.67418 21.157566 85.272242 21.157566 129.297262 0.001024 7.051498-5.769594 12.822116-12.822116 12.822116z" fill="" /><path d="M857.767098 610.017566c-4.915673 0-9.831347-2.991793-11.754203-7.907466-59.199002-139.55557-195.120802-229.529493-346.644568-229.529493-104.505927 0-205.37911 44.239013-276.546307 121.175804-4.701681 5.128642-12.82314 5.556626-18.165773 0.640952-5.128642-4.915673-5.556626-12.82314-0.640953-18.165773 37.400483-40.392276 81.638472-72.23511 131.434112-94.461612 51.718496-23.081447 106.856768-34.83565 163.918921-34.835651 161.782072 0 307.107236 96.171501 370.152975 245.344426 2.778825 6.41157-0.213992 14.105044-6.83853 16.883869-1.495896 0.42696-3.205785 0.854944-4.915674 0.854944zM110.407602 761.541331c-7.052522 0-12.82314-5.770618-12.823139-12.823139 0-89.118979 28.638073-173.536276 82.707408-244.27549 4.274721-5.556626 12.395156-6.625562 17.951782-2.35084 5.556626 4.274721 6.625562 12.395156 2.35084 17.951781-50.650583 66.251524-77.578767 145.326187-77.578767 228.888541 0.215016 6.83853-5.555602 12.609148-12.608124 12.609147z" fill="" /><path d="M855.202265 719.012207h66.251524v66.251523h-66.251524z" fill="#4E9BD4" /><path d="M921.453789 798.085846h-66.251524c-7.052522 0-12.82314-5.770618-12.823139-12.823139v-66.251524c0-7.052522 5.770618-12.82314 12.823139-12.82314h66.251524c7.052522 0 12.82314 5.770618 12.82314 12.82314v66.251524c0 7.053546-5.770618 12.82314-12.82314 12.823139z m-53.428384-25.645255h40.606268V731.835346h-40.606268v40.605245z" fill="" /><path d="M466.242565 326.631705h66.251524v66.251524h-66.251524z" fill="#4E9BD4" /><path d="M532.494089 405.706369h-66.251524c-7.052522 0-12.82314-5.770618-12.82314-12.82314v-66.251524c0-7.052522 5.770618-12.82314 12.82314-12.82314h66.251524c7.052522 0 12.82314 5.770618 12.823139 12.82314v66.251524c-0.001024 7.052522-5.770618 12.82314-12.823139 12.82314z m-53.428384-25.645256h40.606268v-40.605244h-40.606268v40.605244z" fill="" /><path d="M143.58763 719.056234l-0.092149 66.251524-66.252548-0.09215 0.093173-66.252548z" fill="#4E9BD4" /><path d="M143.533364 798.085846H77.28184c-7.052522 0-12.82314-5.770618-12.823139-12.823139v-66.251524c0-7.052522 5.770618-12.82314 12.823139-12.82314h66.251524c7.052522 0 12.82314 5.770618 12.82314 12.82314v66.251524c0 7.053546-5.770618 12.82314-12.82314 12.823139z m-53.428384-25.645255h40.605244V731.835346H90.10498v40.605245z" fill="" /><path d="M884.267298 359.757467m-29.919977 0a29.919977 29.919977 0 1 0 59.839954 0 29.919977 29.919977 0 1 0-59.839954 0Z" fill="#F05F88" /><path d="M884.267298 402.500584c-23.508407 0-42.743117-19.23471-42.743117-42.743117s19.23471-42.743117 42.743117-42.743117 42.743117 19.23471 42.743117 42.743117-19.233686 42.743117-42.743117 42.743117z m0-59.839954c-9.403363 0-17.096837 7.693474-17.096837 17.096837s7.693474 17.096837 17.096837 17.096837c9.403363 0 17.096837-7.693474 17.096837-17.096837s-7.693474-17.096837-17.096837-17.096837z" fill="" /><path d="M114.25434 359.757467m-29.919977 0a29.919977 29.919977 0 1 0 59.839953 0 29.919977 29.919977 0 1 0-59.839953 0Z" fill="#F05F88" /><path d="M114.25434 402.500584c-23.508407 0-42.743117-19.23471-42.743117-42.743117s19.23471-42.743117 42.743117-42.743117 42.743117 19.23471 42.743116 42.743117-19.233686 42.743117-42.743116 42.743117z m0-59.839954c-9.403363 0-17.096837 7.693474-17.096838 17.096837s7.693474 17.096837 17.096838 17.096837 17.096837-7.693474 17.096837-17.096837-7.693474-17.096837-17.096837-17.096837z" fill="" /></svg>